<svg xmlns="http://www.w3.org/2000/svg" version="1.1" xmlns:xlink="http://www.w3.org/1999/xlink" xmlns:svgjs="http://svgjs.dev/svgjs" width="2000" height="1875" viewBox="0 0 2000 1875"><g transform="matrix(1,0,0,1,0,0)"><svg viewBox="0 0 384 360" data-background-color="#ffffff" preserveAspectRatio="xMidYMid meet" height="1875" width="2000" xmlns="http://www.w3.org/2000/svg" xmlns:xlink="http://www.w3.org/1999/xlink"><g id="tight-bounds" transform="matrix(1,0,0,1,0,0)"><svg viewBox="0 0 384 360" height="360" width="384"><g><svg></svg></g><g><svg viewBox="0 0 384 360" height="360" width="384"><g><path xmlns="http://www.w3.org/2000/svg" d="M362.354 145.441v-42.24c0-21.12-19.163-38.402-42.587-38.402h-93.208c-15.198 0-28.337-8.831-34.559-21.646-6.222 12.81-19.36 21.646-34.559 21.646h-93.208c-23.424 0-42.587 17.282-42.587 38.402v42.24c0 15.198-8.831 28.337-21.646 34.559 12.81 6.222 21.646 19.36 21.646 34.559v42.24c0 21.12 19.163 38.402 42.587 38.402h93.208c15.198 0 28.337 8.831 34.559 21.646 6.222-12.81 19.36-21.646 34.559-21.646h93.208c23.424 0 42.587-17.282 42.587-38.402v-42.24c0-15.198 8.831-28.337 21.646-34.559-12.81-6.222-21.646-19.36-21.646-34.559z" fill="#ee3e38" fill-rule="nonzero" stroke="none" stroke-width="1" stroke-linecap="butt" stroke-linejoin="miter" stroke-miterlimit="10" stroke-dasharray="" stroke-dashoffset="0" font-family="none" font-weight="none" font-size="none" text-anchor="none" style="mix-blend-mode: normal" data-fill-palette-color="tertiary"></path></g><g transform="matrix(1,0,0,1,76.80000000000003,106.84031293143121)"><svg viewBox="0 0 230.39999999999995 146.31937413713757" height="146.31937413713757" width="230.39999999999995"><g><svg viewBox="0 0 230.39999999999995 146.31937413713757" height="146.31937413713757" width="230.39999999999995"><g><svg viewBox="0 0 230.39999999999995 146.31937413713757" height="146.31937413713757" width="230.39999999999995"><g><svg viewBox="0 0 230.39999999999995 146.31937413713757" height="146.31937413713757" width="230.39999999999995"><g id="textblocktransform"><svg viewBox="0 0 230.39999999999995 146.31937413713757" height="146.31937413713757" width="230.39999999999995" id="textblock"><g><svg viewBox="0 0 230.39999999999995 146.31937413713757" height="146.31937413713757" width="230.39999999999995"><g transform="matrix(1,0,0,1,0,0)"><svg width="230.39999999999995" viewBox="3.130000114440918 -33.08000183105469 53.03999710083008 33.69000244140625" height="146.31937413713757" data-palette-color="#ffffff"><path d="M23.8-30.66L23.8-30.66 23.34-23.49 23.17-23.44Q21.36-26.15 17.02-26.95L17.02-26.95Q15.65-27.22 14.39-27.22 13.13-27.22 12.24-27 11.35-26.78 10.72-26.37L10.72-26.37Q9.38-25.49 9.38-24.07L9.38-24.07Q9.38-22.22 10.55-21.29L10.55-21.29Q12.01-20.17 15.41-19.71 18.8-19.26 20.85-18.48 22.9-17.7 24.22-16.5L24.22-16.5Q26.71-14.26 26.71-10.16L26.71-10.16Q26.71-4.79 22.66-1.88L22.66-1.88Q19.19 0.61 13.92 0.61L13.92 0.61Q9.67 0.61 5.52-1L5.52-1Q4.15-1.54 3.13-2.25L3.13-2.25 3.39-10.4 3.49-10.47Q6.52-5.25 13.43-5.25L13.43-5.25Q18.33-5.25 19.92-7.62L19.92-7.62Q20.46-8.42 20.46-9.41 20.46-10.4 20.14-11.05 19.82-11.69 19.09-12.16L19.09-12.16Q17.68-13.09 14.33-13.4 10.99-13.72 8.86-14.6 6.74-15.48 5.47-16.77L5.47-16.77Q3.17-19.12 3.17-23.32L3.17-23.32Q3.17-27.66 6.23-30.35L6.23-30.35Q9.33-33.08 14.59-33.08 19.85-33.08 23.8-30.66ZM47.87-33.08L47.87-33.08Q52.44-33.08 55.66-31.49L55.66-31.49 55.66-24.02 55.61-23.97Q54.25-26.07 49.85-26.76L49.85-26.76Q48.56-26.98 46.58-26.98 44.6-26.98 42.7-26.23 40.79-25.49 39.57-24.12L39.57-24.12Q37.2-21.46 37.2-16.53L37.2-16.53Q37.2-10.79 40.21-7.98L40.21-7.98Q42.7-5.64 46.8-5.64L46.8-5.64Q51.44-5.64 54.32-7.62L54.32-7.62Q55.37-8.33 56.1-9.38L56.1-9.38 56.17-9.33 56.17-2.49Q52.44 0.61 46.12 0.61L46.12 0.61Q38.67 0.61 34.45-4.13L34.45-4.13Q30.39-8.64 30.39-16.09L30.39-16.09Q30.39-23.97 34.84-28.52L34.84-28.52Q39.33-33.08 47.87-33.08Z" opacity="1" transform="matrix(1,0,0,1,0,0)" fill="#ffffff" class="wordmark-text-0" data-fill-palette-color="quaternary" id="text-0"></path></svg></g></svg></g></svg></g></svg></g></svg></g></svg></g></svg></g></svg></g><defs></defs></svg><rect width="384" height="360" fill="none" stroke="none" visibility="hidden"></rect></g></svg></g></svg>